<?xml version="1.0" encoding="utf-8"?>
<!-- Generator: Adobe Illustrator 18.1.0, SVG Export Plug-In . SVG Version: 6.00 Build 0)  -->
<svg version="1.0" id="Layer_1" xmlns="http://www.w3.org/2000/svg" xmlns:xlink="http://www.w3.org/1999/xlink" x="0px" y="0px"
	 viewBox="0 0 150 150" enable-background="new 0 0 150 150" xml:space="preserve">
<g>
	<path fill-rule="evenodd" clip-rule="evenodd" fill="#153037" d="M125.2,88.4c0.8-3.2,1.4-6.5,1.6-9.7l0.1-1.9l11.4-2L137.1,62
		l-11.5,0.3l-0.5-1.8c-0.8-3.1-2-6.2-3.4-9.2l-0.8-1.7l8.8-7.5l-7.3-10.4l-9.9,6.1l-1.3-1.3c-2.3-2.3-4.8-4.4-7.5-6.2l-1.5-1l3.9-11
		l-11.5-5.3l-5.5,10.3l-1.8-0.5c-3.1-0.8-6.3-1.4-9.5-1.6L76,20.9L74,9.3l-12.5,1.3l0.2,11.8L60,22.8c-3.1,0.9-6.1,2-9.1,3.5
		l-1.6,0.8l-7.4-9l-10.2,7.5l6,10l-1.3,1.3c-2.3,2.3-4.3,4.9-6.1,7.6l-1,1.5l-10.8-4l-5.2,11.7l10.1,5.7l-0.5,1.8
		c-0.8,3.1-1.3,6.4-1.6,9.7l-0.1,1.9l-11.4,2L11,87.6l11.5-0.3l0.5,1.8c0.8,3.2,2,6.3,3.4,9.2l0.8,1.7l-8.8,7.5l7.3,10.4l9.9-6.1
		l1.3,1.3c2.3,2.3,4.8,4.4,7.5,6.2l1.5,1l-4,11.1l11.5,5.3l0.4-0.7l0.1-16.9c-15-7.1-25.9-21.8-27.6-39.6
		c-1.3-13,2.5-25.7,10.7-35.8C45,33.6,56.6,27.4,69.3,26.1c1.6-0.2,3.2-0.2,4.8-0.2c24.8,0,45.3,19,47.8,44.2
		c2.6,26.9-16.8,50.8-43.1,53.5c-1.6,0.2-3.2,0.2-4.7,0.2c-0.1,0-0.1,0-0.2,0l0.1,16l0.1,0.6l12.5-1.3l-0.3-11.8l1.8-0.5
		c3.1-0.9,6.2-2,9.1-3.5l1.6-0.8l7.4,9l10.2-7.5l-6-10.1l1.3-1.3c2.2-2.3,4.3-4.9,6.1-7.6l1-1.5l10.8,4l5.2-11.7l-10.1-5.7
		L125.2,88.4z"/>
	<path fill="none" d="M106.9,96.3c1.3-1.3,1.3-3.5,0-4.8c-1.3-1.3-3.4-1.3-4.7,0c-1.3,1.3-1.3,3.5,0,4.8
		C103.5,97.7,105.6,97.7,106.9,96.3z"/>
	<path fill="none" d="M96.1,55.6c1.3-1.3,1.3-3.5,0-4.8c-1.3-1.3-3.4-1.4-4.7,0c-1.3,1.3-1.3,3.5,0,4.8
		C92.6,56.9,94.7,56.9,96.1,55.6z"/>
	<path fill="none" d="M49.8,50.8c-1.3,1.3-1.3,3.5,0,4.8c1.3,1.3,3.4,1.3,4.7,0c1.3-1.3,1.3-3.5,0-4.8
		C53.3,49.5,51.1,49.5,49.8,50.8z"/>
	<path fill="none" d="M40.6,89c-1.3,1.3-1.3,3.5,0,4.8c1.3,1.3,3.4,1.3,4.7,0c1.3-1.3,1.3-3.5,0-4.8C44,87.7,41.9,87.7,40.6,89z"/>
	<path fill="none" d="M73.2,93.8c1.3-1.3,1.3-3.5,0-4.8c-1.3-1.3-3.4-1.3-4.7,0c-1.3,1.3-1.3,3.5,0,4.8
		C69.8,95.2,71.9,95.2,73.2,93.8z"/>
	<path fill="none" d="M73.2,93.8c1.3-1.3,1.3-3.5,0-4.8c-1.3-1.3-3.4-1.3-4.7,0c-1.3,1.3-1.3,3.5,0,4.8
		C69.8,95.2,71.9,95.2,73.2,93.8z"/>
	<path fill="none" d="M96.1,55.6c1.3-1.3,1.3-3.5,0-4.8c-1.3-1.3-3.4-1.4-4.7,0c-1.3,1.3-1.3,3.5,0,4.8
		C92.6,56.9,94.7,56.9,96.1,55.6z"/>
	<path fill="#F15B27" d="M109.3,89.1c-2.6-2.7-6.9-2.6-9.5,0c-1.9,2-2.4,4.9-1.5,7.4l-22.9,1.8c-0.4,0-0.8,0.2-1.1,0.5l-5.3,5.5
		l0-6.3c2.3,0.6,4.8,0.1,6.6-1.7c2.6-2.7,2.6-7,0-9.7c-2.6-2.7-6.9-2.6-9.5,0c-2.4,2.5-2.5,6.4-0.5,9.1l0.2,43.8
		c-1.4-0.2-2.7-0.4-4.1-0.6l0.3-51.3l28.2-28.4c2.6,1.5,5.9,1.2,8.1-1c2.6-2.6,2.7-7,0.1-9.7c-2.6-2.7-6.9-2.7-9.5,0
		c-2.2,2.2-2.6,5.7-1.1,8.3L72.7,71.9L58,56.7c1.5-2.6,1.2-6.1-1-8.3c-2.6-2.7-6.9-2.7-9.5,0c-2.6,2.7-2.7,7-0.1,9.7
		c2.2,2.3,5.6,2.6,8.1,1.1l14.8,15.2L59.2,85.6c-0.3,0.3-0.5,0.8-0.5,1.2l-0.1,17.9l-9.8-9.9c1.5-2.6,1.2-6.1-1.1-8.3
		c-2.6-2.6-6.9-2.6-9.5,0.1c-2.6,2.7-2.6,7,0.1,9.7c2.2,2.2,5.6,2.5,8.2,1l12.2,12.3l-0.2,28.6l0,2c1.1,0.3,2.2,0.5,3.4,0.7
		c1.4,0.2,2.7,0.5,4.1,0.6c1.1,0.1,2.2,0.2,3.4,0.3l0-1.9l-0.2-30.6l7.2-7.4l24.7-2c2.6,1.7,6.1,1.4,8.4-1
		C112,96.1,111.9,91.7,109.3,89.1z M91.4,50.8c1.3-1.3,3.4-1.3,4.7,0c1.3,1.3,1.3,3.5,0,4.8c-1.3,1.3-3.4,1.3-4.7,0
		C90,54.3,90,52.1,91.4,50.8z M54.5,55.6c-1.3,1.3-3.4,1.3-4.7,0c-1.3-1.3-1.3-3.5,0-4.8c1.3-1.3,3.4-1.3,4.7,0
		C55.9,52.2,55.8,54.3,54.5,55.6z M45.3,93.8c-1.3,1.3-3.4,1.3-4.7,0c-1.3-1.3-1.3-3.5,0-4.8c1.3-1.3,3.4-1.3,4.7,0
		C46.6,90.3,46.6,92.5,45.3,93.8z M68.5,89c1.3-1.3,3.4-1.4,4.7,0c1.3,1.3,1.3,3.5,0,4.8c-1.3,1.4-3.4,1.4-4.7,0
		C67.2,92.5,67.2,90.4,68.5,89z M106.9,96.3c-1.3,1.3-3.4,1.3-4.7,0c-1.3-1.3-1.3-3.5,0-4.8c1.3-1.3,3.4-1.4,4.7,0
		C108.2,92.8,108.2,95,106.9,96.3z"/>
</g>
</svg>
